# xmcd
#
# Track frame offsets: 
#        150
#        12911
#        26892
#        46285
#        61875
#        75878
#        92184
#        107153
#        122985
#        137704
#        158138
#        176193
#        188708
#
# Disc length: 2716 seconds
#
# Revision: 0
# Processed by: cddbd v1.5.2PL0 Copyright (c) Steve Scherf et al.
# Submitted via: ExactAudioCopy v0.99pb3
#
DISCID=a90a9a0d
DTITLE=James Rogers - Red Light Party
DYEAR=2008
DGENRE=Blues
TTITLE0=Red Light Party
TTITLE1=Not Your Fate
TTITLE2=Tiffany
TTITLE3=Bull Jive
TTITLE4=I Won't Ever Come Home
TTITLE5=Stuck on my Electric Guitar
TTITLE6=It's All I Do
TTITLE7=Guitar Sue
TTITLE8=One More Time
TTITLE9=That Girls Ways
TTITLE10=All Meant to Be
TTITLE11=Ain't No Crime
TTITLE12=Cheesecake Blues
EXTD=
EXTT0=
EXTT1=
EXTT2=
EXTT3=
EXTT4=
EXTT5=
EXTT6=
EXTT7=
EXTT8=
EXTT9=
EXTT10=
EXTT11=
EXTT12=
PLAYORDER=
